<?xml version="1.0" encoding="UTF-8"?><svg id="Layer_1" xmlns="http://www.w3.org/2000/svg" viewBox="0 0 361.28 487.99"><path d="M361.27,140.21c-.33-2.71-1.26-5.34-1.99-8-.12-.45-.34-.97-.68-1.25-2.49-2.06-3.04-4-.76-6.85,1.79-2.24,.4-3.97-2.43-4.46-3.46-.6-6.88-1.57-10.22-2.66-1.91-.62-1.98-1.71-.62-3.19,1.64-1.78,3.28-3.54,4.91-5.33,1.23-1.35,1.7-2.92,1.43-4.75-.44-2.97-.77-5.95-1.22-8.91-.15-.99-.28-2.1-.82-2.89-1.89-2.77-3.69-5.84-7.93-4.78-.39,.1-.84,.06-1.25,0-2.04-.3-3.9-.65-5.18-2.73-1.65-2.69-5.16-3.23-7.87-1.59-2.35,1.42-3.59,1.13-5.75-.41-2.86-2.04-5.74-4.47-9-5.46-6.52-1.98-8.35-6.09-9.36-11.28-.52-2.66-1.02-5.32-1.63-7.96-.32-1.38-.8-2.74-1.29-4.07-.38-1.05-.62-2.38-1.38-3.04-2.63-2.28-5.26-4.69-8.27-6.34-2.74-1.5-6.05-1.92-9-3.08-4.99-1.95-10.2-3.48-14.45-6.97-.25-.21-.56-.41-.88-.48-3.63-.72-5.72-3.12-7.19-6.33-.87-1.91-1.98-3.7-2.96-5.56-.32-.6-.89-1.24-.85-1.83,.13-2.14-1.34-3.24-2.62-4.47-1.59-1.53-3.2-3.04-4.89-4.47-2.99-2.52-6.16-3.8-10.18-2.07-4.05,1.74-4.75,1.08-7.64-2.2-1.99-2.26-4.75-3.86-7.19-5.72-.3-.23-.76-.32-1.15-.33-3.31-.16-6.62-.28-9.93-.44-1.71-.08-3.43-.42-5.12-.27-5.53,.49-10.41,2.95-15.35,5.27-2,.94-3.98,2-6.43,1.63-1.54-.23-3.36-.23-4.74,.38-3.17,1.4-6.13,3.27-9.2,4.89-1.8,.95-3.56,2.21-5.49,2.6-2.45,.5-4.09,1.66-5.41,3.64-.82,1.23-1.81,1.81-3.51,1.24-1.33-.45-2.92-.04-4.36-.23-1.72-.24-3.81-.21-5.02-1.19-3.01-2.43-5.68-5.29-8.34-8.13-1.35-1.44-2.63-2.34-4.63-1.46-1.3,.57-2.69,.98-3.95,1.61-1.85,.93-3.61,2.05-5.46,3-1.23,.63-2.52,1.14-3.82,1.62-1.31,.49-3.03,.51-3.91,1.39-2.13,2.14-3.79,4.73-5.81,7-1.52,1.71-3.05,3.67-5.01,4.68-6.89,3.54-12.89,8.21-18.64,13.3-1.52,1.35-3.17,2.65-4.97,3.57-2.64,1.35-5.64,2.05-8.15,3.58-2.51,1.53-5.12,2.13-7.91,2.4-3.28,.32-6.54,.86-9.24,2.87-3.94,2.94-7.65,6.21-11.67,9.02-4.99,3.49-9.67,7.31-13.73,11.82-1.72,1.91-3.64,4-4.36,6.35-1.02,3.34-1.01,7-1.43,10.52-.07,.62,0,1.26-.16,1.85-.83,3.18-.54,6.31-.03,9.53,.5,3.12,.65,6.35,.53,9.51-.13,3.49-1.09,6.83-3.52,9.55-1.03,1.15-2.07,2.29-3.06,3.47-1.33,1.57-2.66,3.13-3.91,4.76-1.41,1.84-2.76,3.72-4.07,5.63-.28,.41-.28,1.03-.4,1.55-.51,2.38-.98,4.76-1.52,7.13-.37,1.66-.89,3.2,.16,4.93,.5,.82,.52,2.4,.05,3.24-1.6,2.84-3.53,5.48-5.31,8.22-.48,.74-1.09,1.5-1.24,2.33-.42,2.28-.62,4.61-.91,6.91-.4,3.11-.84,6.23-1.21,9.34-.3,2.57-.61,5.15-.76,7.73-.08,1.36,.27,2.73,.27,4.1,.04,6.14-.21,12.28,.09,18.4,.27,5.46,6.98,14.46,9.43,16.79,.35,2.13,.73,1.81,1.08,.37-.16,1.29-.32,2.58-.48,3.87-.41,3.4-.75,6.8-1.15,10.2h1.17c.76-3.12,2.45-5.95,4.69-8.25,0-.75,.05-1.51,.15-2.25-.42-1.57-.59-3.21-.5-4.83-.67-2.26-.82-4.54-.35-6.99,.49-2.55,.27-5.23,.53-7.83,.39-3.87,.76-7.76,1.47-11.59,.62-3.32,2.25-6.52,2.42-9.82,.19-3.69,1.72-6.82,2.65-10.21,1-3.65,1.47-7.44,2.24-11.15,.17-.85,.63-1.65,.88-2.49,.43-1.49,.8-2.99,1.17-4.49,.08-.33,.02-.71,.13-1.02,1.75-4.89,3.88-9.68,5.18-14.68,1.86-7.16,6.63-12.7,9.91-19.05,1.67-3.24,4.73-5.73,6.91-8.75,2.15-2.98,3.81-6.3,5.98-9.25,1.63-2.21,3.69-4.11,5.61-6.09,2.22-2.29,4.44-4.57,6.77-6.75,1.52-1.42,3.09-2.87,4.87-3.91,2.39-1.39,4.64-2.79,6.3-5.11,.67-.93,1.94-1.48,3-2.07,5.2-2.91,10.41-5.8,15.64-8.66,.64-.35,1.44-.39,2.13-.65,3.93-1.47,7.77-3.2,11.79-4.36,2.82-.82,5.23-1.8,6.79-4.42,.18-.3,1.01-.29,1.53-.3,2.67-.04,5.12-.62,7.72-1.41,3.38-1.03,7.3-.28,10.99-.24,.33,0,.83,.34,.97,.64,.69,1.58,1.55,1.15,2.32,.18,.95-1.21,1.94-.94,2.82-.12,1.76,1.64,3.54,1.64,5.22-.37,1.31-1.56,2.73-2.12,4.67-.86,.5,.33,1.77,.09,2.29-.35,1.62-1.37,3.22-1.37,5.14-.75,2.48,.8,5.06,1.31,7.86,2q1.32,2.64,4.56,1.24c1.72-.74,2.29-.42,2.34,1.38,.03,1.32,.2,2.68-.05,3.95-.22,1.12-.92,2.14-1.52,3.45,.57-.09,1.11-.17,1.65-.26,1.59-.26,2.97-.27,4.39,1,.83,.74,2.55,.95,3.74,.72,1.56-.29,3.06-1.13,4.45-1.95,1.63-.96,3.13-2.13,4.65-3.26,2.02-1.5,4.47-.76,5.2,1.6,.93,3.02,4.77,5.19,7.8,4.57,2.64-.54,5.24-.61,7.88,.48,1.38,.57,3.13,.58,4.66,.38,7.65-1,14.51,.9,20.48,5.67,3.26,2.6,6.88,4.52,10.38,6.7,2.22,1.38,4.07,3.35,6.07,5.09,4.11,3.56,7.43,7.8,10.62,12.19,3.26,4.48,6.86,8.71,10.41,12.96,1.05,1.25,2.42,2.23,4.45,.61,.86,2.72,1.48,5.28,2.5,7.67,.78,1.84,2.06,3.46,3.13,5.18,.46,.75,.95,1.47,1.39,2.23,2.11,3.63,3.9,7.5,6.41,10.83,2.07,2.75,4.98,4.86,7.5,7.27,1.23,1.18,2.4,2.42,3.63,3.6,1.1,1.07,1.72,2.04-.26,2.85-.44,.18-.8,.53-1.24,.84,.37,.5,.5,.74,.68,.92,3.78,3.94,3.74,4.24,1.24,9.27-.75,1.52-1.52,2.83-2.69,4.12-1.39,1.55,.11,3.39,1.02,4.93,.31,.53,.82,.94,1.23,1.4,1.02,1.12,1.47,2.15,.49,3.7-1.19,1.91,.15,3.74,1.35,4.92,3.35,3.33,4.26,7.65,5.44,11.89,1.17,4.17,2.41,8.33,3.32,12.56,.73,3.39,.96,6.89,1.54,10.32,.46,2.74,2.4-14.75,2.78-12,.67,4.81,1.42,9.63,1.58,14.47l-3.95,.03c2.72,3.28,4.39,7.49,4.59,12.02,.02,.44,0,.87-.02,1.3l8.34,6.26c-.38-3.37,2.4-12.87,2.71-16.34,.07-.77,.11-1.55,.13-2.32,.17,2.49,.53,4.3,1.28,3.61,1.49-1.37,2.8-2.93,4.1-4.49,2.48-2.96,4.96-5.93,7.27-9.02,.69-.92,1.28-2.32,1.12-3.38-.58-3.95,1.09-6.78,3.74-9.41,.86-.85,1.36-2.17,1.73-3.37,.77-2.44,1.35-4.95,2-7.43,.46-1.77,.92-3.53,1.37-5.3,.7-2.76,1.45-5.5,2.05-8.28,.28-1.31,.43-2.71,.31-4.04-.26-3.05-.75-6.09-1.09-9.14-.1-.89,.19-1.88-.08-2.7-1.42-4.29-1.12-8.71-1.2-13.11-.07-3.62,1-6.67,3.65-9.25,.9-.88,1.81-2.43,1.67-3.54ZM40.41,97.04c-.86,.37-1.4,1.5-2.08,2.27-2.64-2.38-3.13-5.49-1.75-8.43,.44-.93,.48-2.14,.43-3.2-.13-2.73,.97-4.33,3.72-4.64,1.32-.15,1.82-.68,2.3-1.87,.44-1.09,1.42-2,2.29-2.86,.57-.56,1.46-.77,2.04-1.32,.55-.53,.87-1.3,1.3-1.96l.48,.21c-.58,1.54-1.26,3.04-1.72,4.61-1.15,3.87-1.92,7.89-3.41,11.62-.78,1.96-1.08,4.5-3.6,5.58Zm6.48-5.72c-.36-.4-1.1-.96-1.02-1.17,.33-.78,.93-1.43,1.44-2.14,.38,.29,.77,.57,1.39,1.03-.72,.91-1.27,1.59-1.81,2.27Zm8.68-9.16c-1.49,.84-2.25,1.97-2.4,3.76-.05,.56-1.44,1.22-2.32,1.43-.8,.19-1.73-.18-2.77-.33-.95-1.67-.4-2.88,1.35-3.75,1.27-.63,2.19-1.39,2.3-3.07,.08-1.12,.96-2.19,1.56-3.45,2,1.18,5.03,.3,5.34,3.47-1.02,.65-2.02,1.34-3.07,1.94Zm13.69-12.58c-1.64,1.96-2.33,4.71-3.41,7.08-.85-2.45-2.76-4.89-.99-7.99,1.31-2.3,3.73-2.83,5.73-4.75,.44,2.77-.01,4.09-1.33,5.66Zm8.55,2.09c-.75,.43-1.65,.58-2.47,.91-1.33,.52-2.56-.07-2.32-1.39,.4-2.23,.99-4.48,1.92-6.54,.36-.79,1.93-1.6,2.8-1.46,1.13,.17,1.58,1.48,1.49,2.82-.08,1.21,.14,2.43,.27,4.26-.31,.26-.92,.96-1.69,1.4Zm17.31-13.2c-.28,.39-.63,.73-.94,1.09-1.03-.81-1.97-1.34-2.58-2.12-.39-.5-.63-1.69-.33-2.03,.68-.76,1.73-1.59,2.65-1.61,.89-.02,1.79,3.85,1.2,4.67Zm5.21-9.27c.54,.07,1.04,.5,1.98,.98-1.15,1.24-1.98,2.13-2.81,3.02-.46-.61-1.32-1.26-1.28-1.84,.08-1.1,.53-2.38,2.1-2.16Zm7,9.98c-1.49,.35-2.98,.67-4.41,.99-1.72-.86-3.5-1.76-5.31-2.68,2.26-2.58,3.36-2.72,6.42-.37,.06-1.25,.4-2.19,.08-2.76-1.61-2.91-.92-5.64,.53-8.26,.46-.83,1.44-1.36,2.67-2.47,.14,1.36,.31,2.02,.25,2.65-.35,3.62,.04,7.15,1.16,10.61,.39,1.21-.17,2.01-1.4,2.29Zm19.51-29.76c.39-.4,1.4-.18,2.13-.25,.02,.69,.33,1.73,0,2-.88,.73-2.04,1.13-3.08,1.66-.19-.23-.38-.47-.56-.7,.48-.92,.81-2,1.51-2.71Zm38.89,4.71c-2.96,4.41-6.13,8.68-9.17,13.03-.95,1.36-1.88,2-3.52,1-.7-.42-1.69-.36-2.67-.54,.18-.79,.58-1.7,.55-2.59-.03-.8-.31-1.82-.86-2.32-1.81-1.62-2.01-2.17-.68-4.21,.68-1.05,1.47-2.03,1.98-3.22-2.62,1.34-4.26,3.52-5.35,6.16-.73,1.77-1.34,3.66-3.28,4.48-.72,.3-1.79,.49-2.37,.15-.44-.25-.47-1.42-.47-2.18,0-.94,.23-1.87,.45-3.49-1.19,.63-1.98,.88-2.55,1.38-2.39,2.09-5.14,2.65-8.17,2.1-.99-.18-1.65-.2-2.03,1.01-.53,1.65-1.16,3.24-3.62,2.32-1.09-.41-2.56,1.53-2.6,3.09q-.05,1.81-2.07,2.55v-6.86c-.85,.19-1.4,.32-2.52,.57,.24-1.49,.17-2.94,.74-4.07,1.02-2.06,2.39-3.95,3.69-5.87,.47-.7,1.14-1.27,1.94-2.14,.57,3.33,2.1,6.13-.72,8.48,2.23,1.37,3.75,.72,4.37-1.54,.72-2.6,2.16-4.65,4.79-5.63,.46-.17,1.14-.34,1.48-.13,1.89,1.21,3.24,.11,4.61-.93,2.01-1.53,3.97-3.13,5.99-4.64,.41-.31,1.01-.5,1.52-.51,1.95-.06,3.92-.1,5.86,.01,.76,.05,1.69,.33,2.21,.85,1.22,1.21,2.35,.86,3.55,.16,.82-.48,1.55-1.15,2.41-1.52,.54-.23,1.59-.32,1.83-.02,1.59,2.02,3.45,1.84,5.52,.72l.53,.41c-.44,1.32-.61,2.82-1.36,3.94Zm176.27,94.72c-2.65,3.78-4.09,4.21-7.67,2.38-2.25-1.15-4.41-1.8-7.06-1.21-1.18,.26-2.98-.62-3.97-1.55-2.36-2.21-5.11-3.06-8.14-3.87-2.25-.6-4.22-2.34-6.21-3.72-1.63-1.13-3.1-2.47-4.64-3.72l.34-.78c.73-.04,1.47-.19,2.18-.1,5.79,.73,10.66,3.95,16,5.9,4.19,1.53,8.48,2.8,12.71,4.25,2.14,.73,4.24,1.59,6.46,2.43Zm-18.1-30.63c-.06-.45,.2-1.14,.55-1.42,1.01-.79,2.08-1.58,3.25-2.06,.64-.26,1.53,.1,2.31,.18-.36,.74-.7,1.49-1.08,2.22-.26,.49-.59,.93-.89,1.4,.59,.14,1.19,.38,1.78,.38,.67,0,1.36-.15,2.01-.35,1.53-.47,2.69-.03,3.58,1.26,.35,.5,.65,1.08,1.11,1.45,1.27,1.02,1.26,1.8,.07,3.01-1.64,1.67-.28,3.26,.59,4.79,.3,.54,.45,1.16,.67,1.75-.68,.08-1.45,.41-2.02,.2-1.43-.54-2.71-1.55-4.16-1.98-3.89-1.15-7.81-2.22-11.79-3-.81-.16-1.9,1.11-2.86,1.72,.08,.25,.16,.51,.24,.76-2.03-.77-4.05-1.55-5.98-2.28,1.35-.65,3.1-1.34,4.68-2.29,1.37-.82,2.62-1.45,4.33-1.43,2.65,.03,3.94-1.76,3.61-4.32Zm-34.77-21.87c.26-.62,.39-1.3,.66-2.23,1.22,1.06,2.26,2.16,3.48,2.98,2.31,1.54,4.94,2.58,6.21,5.41,.31,.69,1.75,1.25,2.66,1.24,2.21-.04,3.53,.82,4.05,3.23-1.06,1.32-2.27,1.84-4.04,.88-2.66-1.43-3.23-1.05-3.52,1.99-2.52,.28-5.4-2.69-4.81-5.06,.1-.41,.82-.76,1.32-.94,.7-.25,1.47-.32,2.39-.51-1.27-.93-2.24-1.78-3.34-2.4-.78-.45-1.73-.78-2.62-.84-2.46-.16-3.38-1.52-2.45-3.75Zm15.28,18.6c-2.59,.05-3.94-1.04-3.75-3.19q4.06,.96,3.75,3.19ZM235.49,19.53c.47,.37,1.4,.77,1.8,1.46,2,3.51,4.35,6.71,7.39,9.42,.62,.55,.89,1.65,1.04,2.54,.29,1.71,.95,2.85,2.79,3.32,1.05,.27,2.02,1.02,2.93,1.69,1.1,.82,2.17,1.7,3.08,2.71,.39,.44,.35,1.27,.5,1.92-.73,.16-1.72,.71-2.15,.43-2.96-1.97-6.32-2.66-9.67-3.5-2.57-.64-2.65-1.09-1.4-3.35,1.03-1.87,.07-4.82-2.29-6.19-2.87-1.67-5.03-3.89-6.33-6.94-.57-1.35,.64-3.51,2.31-3.52Zm-17.6-1.89c2.43-.26,4.99,1.03,5.89,3.42-2.29-1.06-4.19-1.95-6.1-2.83l.21-.58Zm-9.03-6.45c.61,.53,1.78,1.12,1.73,1.57-.23,1.88-1.81,1.2-2.95,1.31-.22-.2-.45-.41-.67-.61,.63-.75,1.26-1.51,1.89-2.26Zm-31.81,13.01c.19,.13,.37,.26,.56,.39-.51,.9-1.02,1.79-1.79,3.13q-.88-2.71,1.23-3.53Zm41.15,44.77c1.9-.84,3.47-1.54,5.52-2.45-.91,2.94-2.72,3.66-5.52,2.45Zm5.54-10.14c-.78,.65-1.65,1.21-2.55,1.7-.45,.24-1.04,.21-1.56,.3-.07-.52-.37-1.17-.17-1.55,1.15-2.14,2.41-4.21,3.76-6.51,.17,.23,.05-.06-.05-.05-2.56,.17-5.2,.02-7.64,.66-2.6,.68-4.98,2.14-7.48,3.22-2.32,1-4.67,1.93-7.14,2.95-.46-3.86,1.85-5.41,4.15-7,.58-.4,1.14-.95,1.5-1.56,1.34-2.24,2.62-4.51,3.86-6.81,.38-.71,.55-1.54,.61-2.42-3.23,1.62-3.82,5.64-6.65,7.53l-.65-.4c.16-.6,.44-1.2,.46-1.8,.03-.76-.14-1.53-.22-2.3-.88,.2-2.13,.1-2.57,.65-2.46,3.05-5.89,2.66-9.16,2.89-.25,.02-.7-.09-.74-.24-.45-1.4-1.27-2.88-1.11-4.23,.12-.97,1.42-2.14,2.47-2.58,3.32-1.4,5.91-5.15,5.53-9.05-1.24,.44-2.45,.73-3.53,1.27-2.18,1.09-4.34,2.24-6.43,3.5-1.07,.65-2.12,1.47-2.87,2.45-2.22,2.88-3.65,3.86-8.27,5.06,.47-.74,.97-1.3,1.19-1.95,.22-.65,.43-1.84,.16-2-.6-.36-1.58-.48-2.25-.24-1.06,.37-1.98,1.12-2.9,1.66-.57-.9-1.29-1.74-1.66-2.71-.25-.66-.28-1.68,.08-2.23,1.61-2.53,3.34-4.98,5.14-7.37,.41-.55,1.27-.76,1.89-1.17,1.65-1.08,3.28-2.18,4.93-3.27,1.84-1.21,3.46-.74,4.26,1.24,.99,2.43,1.39,2.68,3.73,1.38,2.85-1.59,5.53-3.47,8.34-5.11,.95-.55,2.09-.86,3.18-1.09,.94-.19,1.93-.13,2.9-.13,.97,0,1.94,.07,2.91,.11-.09,.96-.18,1.92-.3,3.19,1.87,1.1,1.75,.79,1.17,3.8-.73,3.85-3.56,5.71-5.63,8.33-.23,.3-.55,.66-.88,.73-4.11,.82-5.11,4.78-7.45,7.37-.09,.1,.03,.38,.08,.74,3.49-.4,5.72-2.43,7.14-5.39,.72-1.5,1.39-1.89,3.13-1.42,1.75,.47,3.75,.31,5.59,.06,.72-.1,1.34-1.16,1.92-1.86,.51-.61,.76-1.51,1.36-1.94,.45-.32,1.35-.25,1.93-.03,.24,.09,.17,1.01,.24,1.56,.09,.72-.02,1.54,.28,2.15,.76,1.51,.27,2.58-1.09,3.16-3.69,1.56-4.64,5.32-6.79,8.18,3.26-.78,6.46-1.53,8.94-3.98,.66-.65,1.56-1.41,2.38-1.46,.87-.05,2.1,.45,2.63,1.13,1.07,1.39,1.96,1.75,3.53,.78,.75-.46,1.86-.3,2.76-.56,.48-.14,.85-.62,1.3-.89,.62-.38,1.28-.72,1.92-1.07,.37,.68,.96,1.32,1.07,2.04,.18,1.15-.16,2.41,.12,3.52,.19,.73,1,1.69,1.67,1.82,1.87,.37,3.83,.28,5.73,.54,.74,.1,1.55,.52,2.08,1.04,.94,.92,.52,1.69-.59,2.17-3.39,1.47-6.8,2.89-10.15,4.45-2.23,1.04-4.52,.98-6.24-.79-1.21-1.24-2.12-1.17-3.32-.16Zm55.72,61.08l-.86-4.63,1.14-.16c.17,1.56,.34,3.12,.51,4.67-.26,.04-.52,.07-.78,.11Zm-6.85-54.84c.33,.77,1.66,1.44,2.62,1.56,2.08,.25,3.21,1.16,3.88,3.17,.88,2.62,2.4,4.96,2.33,7.95-.03,1.13,1.33,2.27,1.95,3.46,.36,.68,.91,1.62,.69,2.19-.68,1.81,.14,2.79,1.47,3.7,.27,.19,.47,.49,.67,.72-.05,.2-.07,.44-.11,.45-2.47,.33-3.65,2.24-4.74,4.1-.47,.8-.65,1.99-.49,2.92,.54,3.16,.6,6.18-.83,9.17-.38,.8-.05,1.94-.07,2.92-.02,.99-.08,1.98-.14,3.23-2.8-1.53-2.55-4.13-3.13-6.24-.73-2.67-1.13-5.44-1.59-8.18-.07-.45,.14-1.21,.47-1.41,1.69-.99,1.02-2.03,.28-3.21-.49-.79-.83-1.67-1.26-2.58,1.91-1.33,1.76-2.99,1.28-4.97-.66-2.77-.58-5.74-1.43-8.43-.82-2.61-1.87-5.6-3.81-7.28-2.58-2.23-6.04-3.54-9.28-4.87-1.84-.76-4.03-1.16-6-1.01-2.86,.21-5.12-1.07-7.66-1.76-2.04-.55-4.68,.44-6.87,1.26-3.04,1.13-5.9,2.75-8.85,4.14-.3,.14-.65,.16-1.06,.26-.42-1.65-.19-2.61,1.69-3.05,1.06-.25,1.88-1.39,2.91-1.95,1.7-.93,3.49-1.69,5.23-2.56,1.32-.65,2.56-1.48,3.93-2,1.21-.47,2.54-.83,3.83-.86,1.64-.05,1.81-.71,1.51-2.56,1.59,.58,3.18,1.16,4.77,1.72,.82,.29,1.64,.62,2.49,.77,1.8,.32,3.62,.76,5.43,.72,1.36-.02,2.84-.49,3.99-1.21,.35-.22-.16-1.94-.4-2.95-.14-.62-.51-1.2-.83-1.93,3.91,2.02,7.65,3.95,11.4,5.88,.05-.24,.09-.48,.14-.72,.72-.62,1.77-1.9,2.09-1.73,1.52,.77,3.08,1.73,4.14,3.03,.73,.89,.41,2.56,.99,3.67,1.06,2.05,2.43,3.94,3.67,5.9,.28,.45,.78,.88,.82,1.35,.11,1.49,.04,3,.04,4.46-1.71-2.13-3.35-4.19-5.02-6.23-.3-.37-.7-.92-1.07-.93-3.03-.08-5.18-2.05-7.64-3.37-.6-.32-2.13-.25-2.17-.09-.27,1.11-.64,2.45-.24,3.4Zm20.02,36.06c-.95-.24-1.7-1.46-2.43-2.33-.71-.84-1.44-1.74-1.82-2.74-.23-.61,.05-2.03,.35-2.11,1.12-.28,2.48-.52,3.49-.12,2.19,.88,4.22,2.14,6.29,3.3,1.77,.99,3.56,1.21,5.49,.52,.88-.31,1.83-.42,2.83-.64,1.72,3.39,2.82,3.52,5.36,1.26,.46-.41,1.7-.22,2.45,.05,.66,.24,1.13,.98,1.92,1.73-.63,.5-1.08,1.13-1.63,1.24-3.65,.77-7.33,2.01-10.99,1.98-3.79-.03-7.59-1.2-11.32-2.15Zm43.73,100.21c-.88,2.09-1.18,4.43-1.67,6.67-.15,.67,.11,1.46-.15,2.05-.26,.59-.94,1-1.44,1.49-.31-.55-.78-1.07-.9-1.67-.24-1.22,.51-3.2-2.09-2.17-.17,.07-.83-.64-1-1.08-1.17-3.07-3.15-5.89-3.06-9.35,.05-2.17,1.3-3.64,3.69-4.88-4.7-2.53-4.01-7.39-5.91-10.67,1.37-.49,2.77-.55,3.28-1.26,1.12-1.56,.17-3-.91-4.38-.71-.91-1.28-2.08-1.47-3.21-.26-1.56,.88-1.61,1.75-.86,.9,.78,1.66,1.82,2.2,2.9,1.82,3.62,3.47,7.32,5.26,10.95,.56,1.14,.51,2.07-.07,3.2-1.05,2.03-.28,4.84,1.71,6.91,2.05,2.13,1.93,2.67,.8,5.37Zm7.88-51.19c-3.52-.36-7.01-1.01-10.53-1.46-1.3-.17-2.65-.27-3.94-.1-1.08,.14-1.18,.9-.52,1.83,2.85,4.01,4.5,4.57,9.49,3.43,1.47-.34,3.04-.26,5.05-.41-2.67,1.63-4.63,3.39-6.9,4.05-1.91,.55-4.18-.25-6.3-.31-.92-.02-1.94,.13-2.75,.53-2.41,1.19-4.34-.28-6.39-1-1.58-.55-3.21-1.11-4.62-1.99-1.61-1.01-2.99-2.38-4.47-3.59,.13-.25,.26-.49,.38-.74,.72-.07,1.45-.27,2.14-.17,2.46,.35,4.35-.95,6.26-2.12,.26-.16,.4-1.07,.2-1.37-1.57-2.33-6.62-2.91-8.87-1.37-.73,.5-2.65,.58-3.03,.09-2.04-2.68-5.14-3.45-7.86-4.89-.71-.38-1.34-.9-2.01-1.35,.02-.26,.05-.52,.07-.78,1.14,0,2.3-.13,3.42,.02,.71,.09,1.36,.62,2.05,.91,1.01,.42,2.27,1.69,3.04,.25,.62-1.17,.69-2.85-.73-3.95-.54-.42-1.06-.86-1.58-1.29l.33-.5c1.42,.3,2.84,.56,4.24,.9,5.14,1.23,10.29,2.47,15.42,3.72,2.03,.49,3.7,1.27,5.21,3.01,.98,1.14,3.3,1.26,5.06,1.56,1.35,.23,2.8,.22,4.16,.01,3.13-.48,5.17,2.34,5.99,4.41,.61,1.56-.28,2.85-2,2.68Z"/><path d="M305.65,220.7c-2.3-.82-4.22-1.38-6.03-2.18-2.23-.99-2.26-3.1-2.55-5.19-.17-1.26-.89-2.6-1.74-3.57-1.4-1.6-3.12-2.91-4.68-4.37-.5-.47-1.15-.94-1.37-1.54-1.44-3.97-4.92-5.92-8.03-8.2-1-.73-2.1-1.23-3.6-.76-.82,.26-1.97-.57-2.98-.89-1.59-.51-3.15-1.13-4.78-1.47-4.32-.91-8.67-1.71-13.01-2.52-1.67-.31-3.35-.8-5.02-.8-4.01,.02-7.81-.44-11.66-1.89-3.82-1.44-8.01-1.93-12.06-2.73-2.67-.52-5.37-.99-8.08-1.21-1.69-.14-3.51-.1-5.1,.39-3.18,.97-6.09-.38-9.11-.61-.47-.04-.93-.22-1.4-.25-3.63-.21-4.8-2.47-2.97-5.59,.88-1.51,1.11-3.23,2.77-4.48,2.26-1.71,4.76-2.01,7.3-2.43,.88-.15,1.81,.04,2.71-.05,.5-.05,1.24-.23,1.42-.58,.99-1.92,2.67-2.55,4.62-2.96,.64-.14,1.25-.82,1.68-1.4,1.63-2.2,3.35-2.38,4.93-.24,.72,.99,1.52,1.11,2.1,.4,1.76-2.14,3.93-1.09,5.86-.81,2.51,.37,5.38,.61,7.31,2,3.19,2.29,6.91,2.08,10.26,3.35,1.58,.6,3.27,.9,4.83,1.54,2.44,1,4.78,2.26,7.23,3.23,.64,.25,1.53-.19,2.31-.26,.59-.05,1.51-.28,1.72,0,1.58,2.08,3.97,2.3,6.2,2.8,2,.46,3.44,1.28,4.66,3.14,1.35,2.06,3.19,3.95,5.94,4.49,.64,.13,1.25,.83,1.69,1.41,.81,1.07,1.38,2.33,2.25,3.34,2.3,2.69,4.79,5.22,7.02,7.97,.94,1.16,1.43,2.69,2.11,4.06,.09,.18,.02,.48,.15,.59,2.84,2.5,2.03,6.35,3.45,9.36,1.1,2.33,2.2,4.65,3.27,7,.19,.42,.19,.92,.38,1.92Zm-40.29-38.4c-1.36-2.42-3.34-3.01-6.5-1.89,2.14,.96,3.92,2.66,6.5,1.89Z"/><path d="M111.14,169.57c3.07,2.18,5.45,5.23,5.98,9.1,.23,1.72,.74,2.81,2.18,3.59,.21,.11,.32,.41,.85,1.12-1.33,.46-2.37,1-3.46,1.14-1.45,.18-2.8,.01-3.42,1.91-.19,.58-1.81,1.12-2.65,.98-3.68-.61-7.32-1.45-10.96-2.28-3.42-.77-7.58-1.6-10.95-1.6-5.62-.28-12.51,.44-14.58,1.12-1.56-.08-22.7,5.35-25.93,6.2-3.71,.98-6.72,3.17-9.76,5.36-1.31,.95-2.45,1.91-2.65,3.69-.08,.71-.43,1.53-.93,2.01-2.39,2.33-2.83,6.13-6.02,7.86-.32,.18-.29,.92-.6,1.22-.45,.45-1.12,1.07-1.6,.99-.48-.08-.97-.87-1.19-1.44-.18-.47-.15-1.2,.11-1.61,1.32-2.14,1.03-4.5,1.12-6.82,.05-1.14,.16-2.39,.67-3.37,1.93-3.74,3.72-7.61,6.16-11,2.13-2.95,5.12-5.26,7.64-7.94,1.98-2.1,12.5-7.99,12.95-8.35,2.02-1.58,4.21-2.67,6.6-2.37,1.11,.14,2.31-.39,3.46-.68,1.48-.38,2.93,.07,4.43-.09,4.91-.53,9.84-.81,14.74-1.37,1.22-.14,25.34,.87,27.8,2.61Zm-4.94,3.23l-.41,.65c.85,1.21,2.14,2.15,3.6,2.21,.62,.03,1.31-1.39,1.96-2.15l-.46-.7h-4.69Z"/><path d="M256.78,234.72c-.84,2.23-1.41,4.11-2.25,5.87-2.31,4.82-4.12,5.54-9.51,4.6-2.43-.43-4.96-.21-7.42-.54-2.47-.34-4.95-.85-7.35-1.55-3.41-1-3.63-4.08-4.05-6.92-.14-.95,.02-1.95-.03-2.92-.09-1.63-.9-2.08-2.41-1.54-3.95,1.4-6.66,4.21-8.86,7.62-.95,1.47-3.09,1.76-4.67,.4-1.25-1.08-2.45-1.46-4.13-1.18-.84,.14-2.25-.5-2.66-1.21-.4-.69-.24-2.38,.33-2.85,1.53-1.27,3.34-2.27,5.15-3.12,1.52-.71,3.2-1.09,4.83-1.55,1.82-.51,3.68-.88,5.48-1.45,1.28-.4,2.59-.88,3.72-1.6,1.5-.95,2.77-1.73,4.81-1.41,1.95,.31,4.08-.23,6.09-.62,4.68-.89,9.21-.53,13.73,.95,1.52,.5,3.24,.38,4.86,.64,1.33,.21,2.73,.35,3.92,.9,3.56,1.66,7.06,3.43,10.51,5.3,2.62,1.43,5.59,2.64,7.57,4.73,2.37,2.51,4.96,4.43,7.8,6.26,.68,.43,.91,2.66,.41,3.5-.48,.8-2.17,1.11-3.36,1.18-.85,.05-1.74-.69-2.64-1.01-.56-.2-1.22-.47-1.75-.35-4.7,1.1-7.39,.04-9.55-4.11-1.87-3.59-5.17-5.52-8.57-8.02Zm-11.92-4.23c-.61,0-.85-.07-1.02,.01-.75,.38-1.47,.8-2.2,1.21,.71,.43,1.47,1.25,2.14,1.19,1.06-.1,2.07-.8,3.09-1.24-.32-.38-.58-.88-.99-1.09-.39-.2-.94-.08-1.02-.08Z"/><path d="M162.54,428.08c-.61,3.39-3.2,4.71-5.56,6.28-1.65,1.1-3.05,.88-4.42-.47-.92-.91-1.94-1.73-3.16-2.82,.38-.76,.9-1.81,1.48-2.98-1.16-.05-2.17-.1-3.32-.15-.2,3.2-2.59,4.04-5.12,4.57-.63,.13-1.84-.14-1.99-.53-.24-.62,.08-1.54,.36-2.26,.15-.4,.7-.65,.82-.75-.54-1.64-.89-3.08-1.48-4.41-.62-1.43-1.39-2.81-2.24-4.11-.63-.96-1.49-1.78-2.26-2.65-.21-.24-.47-.64-.7-.63-2.4,.12-1.67-1.63-1.34-2.62,.55-1.63,1.06-3.6,3.11-4.01,1.74-.35,3.63-.71,5.31-.37,3.37,.69,6.49,.06,9.82-.33,4.69-.55,9.68-1.34,13.99,1.02,1.29-1.22,2.2-2.42,3.39-3.14,1.52-.91,9.01,.78,10.22,2.1,.88,.96,1.75,1.94,2.52,2.99,.29,.39,.4,1.03,.36,1.53-.1,1.13-3.61,4.02-4.8,4.04-.32,4.69-.15,5.03,4.58,6.93,1.35,.54,3.08,.93,2.82,2.58-.11,.68-1.99,1.19-3.13,1.57-.59,.2-1.5,.2-1.96-.13-2.88-2.06-5.32-.47-7.53,1.05-3.82,2.64-6.32,2.3-9.03-1.66-.08-.11-.2-.19-.73-.66Z"/><path d="M118.9,233.74c-.59,1.09-.87,1.88-1.37,2.48-1.79,2.1-5.56,1.72-7.74,.14-2.93-2.13-6.28-3.7-9.54-5.34-1.05-.53-1.88,.12-1.79,1.46,.02,.35,0,.7,0,1.04,0,4.08-.72,5.27-4.52,6.52-4.51,1.48-9.06,2.82-13.64,4.09-1.43,.4-3.03,.7-4.46,.47-1.28-.21-2.96-.9-3.54-1.92-1.45-2.51-2.38-5.32-3.5-8.01-.53-1.27-1.01-1.97-2.75-1.37-3.16,1.1-5.01,3.45-6.79,5.98-.29,.42-.39,1.02-.42,1.55-.05,.9,.41,2.17-.04,2.64-1.19,1.27-2.69,3-4.18,3.12-3.46,.28-7.01-.11-10.47-.6-.92-.13-2.05-1.55-2.29-2.58-.15-.64,.99-2.04,1.85-2.39,4.43-1.82,6.87-5.61,9.85-8.99,1.85-2.1,3.56-4.94,7.1-5.03,.92-.02,1.77-.99,2.73-1.26,2.56-.72,5.15-1.29,7.73-1.93,1.05-.26,2.09-.57,3.14-.83,.65-.16,1.32-.4,1.98-.4,8.27-.04,16.4,.8,24.3,3.47,2.36,.8,4.95,.88,7.36,1.55,2.8,.78,5.61,1.66,8.22,2.9,1.17,.56,1.85,2.11,2.78,3.24Zm-30.89-1.46c1.2-.24,2.3-.26,3.17-.71,.63-.33,1.11-1.18,1.33-1.9,.08-.27-.72-1.13-1.17-1.19-1.84-.21-3.79-.32-5.2,1.17-.34,.35-.34,1.51-.01,1.88,.42,.48,1.32,.54,1.89,.74Zm-12.12,3.35c-.59,3.11-.11,3.69,2.67,3.27-.93-1.13-1.64-2.01-2.67-3.27Z"/><path d="M214.98,375.8c-1.05,.27-2.09,.72-3.15,.78-2.08,.12-4.18-.1-6.25,.07-4.16,.33-8.32,.79-12.46,1.28-4.27,.49-8.55,.99-12.8,1.64-4.98,.77-9.9,1.93-14.9,2.5-3.75,.43-7.58,.4-11.36,.17-4.02-.24-7.99-1.15-12.01-1.39-5.59-.34-11.22-.56-16.81-.39-4,.12-7.98,.97-11.97,1.49-1.21,.16-2.43,.35-3.64,.48-.24,.03-.63-.06-.75-.24-1.77-2.67-4.89-2.58-7.44-3.64-.7-.29-1.81-.34-2.5-.04-3.32,1.45-7.03,2.42-8.87,5.99-.49,.95-.28,2.26-.33,3.41-.01,.31,.34,.68,.25,.93-.13,.36-.44,.76-.78,.93-1.85,.9-1.86,4.24-4.94,3.61-.99-.2-2.1,.24-3.52,.44,.03-.4,.05-.95,.13-1.5,.23-1.57,.71-3.15,.67-4.71-.05-2.2-.3-4.03,1.13-6.27,1.52-2.38,2.52-5.55,1.88-8.8-.34-1.75-.28-3.59-.34-5.39-.08-2.02,.53-3.38,2.96-3.13,.38,.04,.8-.72,1.28-.95,.15-.07,.3-.13,.46-.19,.74-.25,1.54,.24,1.68,1.01,.06,.34,.1,.68,.08,1.02-.02,.47-.64,.87-.84,1.37-.52,1.33,0,2.11,1.28,2.77,2.13,1.12,4.38,2.21,6.15,3.8,2.44,2.19,5.1,3.3,8.32,3.37,1.45,.03,2.93,.52,4.34,.35,4.8-.56,9.58-1.34,14.37-2,.82-.11,1.76-.26,2.48,.02,2.92,1.14,5.74,.17,8.61-.12,1.47-.15,2.97-.09,4.46-.12,.53-.01,1.08,.08,1.58-.04,3.1-.75,6.16-1.74,9.29-2.28,3.22-.56,6.22,.08,8.86,2.37,1.82,1.57,3.9,3.07,6.64,2.23,.26-.08,.6-.11,.82,0,3.6,1.74,6.7-.23,9.94-1.17,.94-.28,1.93-.37,2.92-.34,3.29,.11,6.44,.73,9.74-.9,2.13-1.06,4.97-.95,7.48-.91,4.26,.07,8.52,.47,12.77,.81,1.69,.14,3.36,.5,5.04,.77l.03,.9Z"/><path d="M113.21,314.78c3.09,.98,6.51,1.83,9.75,3.15,5.21,2.13,10.35,4.46,15.41,6.91,2.79,1.35,5.58,2.88,7.98,4.81,3.17,2.55,6.39,4.24,10.62,4.03,2.28-.11,4.61,.44,6.88,.91,1.58,.33,1.74,1.28,.62,2.49-2.15,2.33-4.37,3.6-7.94,2.95-3.22-.58-6.7,.27-10.06,.42-.67,.03-1.62-.03-2-.45-5.44-5.9-12.37-9.17-19.76-11.91-5.73-2.12-11.23-4.87-16.75-7.51-1.79-.85-1.55-3.63,.3-4.39,1.42-.58,2.97-.87,4.97-1.43Z"/><path d="M257.48,388.3c-1.89,0-3.65,.09-5.4-.05-.57-.04-1.23-.57-1.61-1.06-1.32-1.73-3.33-2.92-3.1-5.78,.1-1.19-1.65-2.91-2.97-3.74-1.86-1.17-4.04-1.98-6.2-2.49-1.19-.28-2.69,.14-3.9,.61-2.03,.8-3.88,2.06-5.92,2.8-1.11,.4-2.55,.41-3.7,.09-2.38-.65-4.66-1.64-6.98-2.49-.5-.19-.99-.4-2.03-.82,1.01-.39,1.58-.77,2.16-.81,4.11-.33,8.23-.62,12.35-.85,2.79-.15,5.29-1.19,7.15-3.12,2.28-2.37,4.38-4.83,7.53-6.14,.39-.16,.59-1.29,.5-1.92-.08-.62-.53-1.3-1.01-1.73-1.05-.92-.58-1.87,.08-2.48,.3-.28,1.33,.13,2,.35,.62,.2,1.21,.82,1.77,.78,1.67-.13,2.48,.6,2.64,2.15,.18,1.78,.44,3.57,.38,5.35-.13,3.92,1.19,7.23,3.64,10.21,.52,.64,.8,1.56,.94,2.4,.16,.95,.04,1.94,.04,2.91,0,1.63-.27,3.31,1.22,4.59,.33,.29,.34,.95,.43,1.25Z"/><path d="M128.57,229.1c-.6-2.9,.32-5.98-1.11-9.07-.84-1.81,0-4.38-1.46-6.26-.79-1.01-1.53-2.14-2.54-2.87-2.13-1.54-3.27-3.68-3.98-6.06-.56-1.85,.8-3.06,2.63-2.34,3.21,1.25,6.81,1.87,9.01,4.94,1.01,1.41,1.92,2.9,2.75,4.42,1.42,2.59,2.92,5.16,4.01,7.88,.45,1.14-.03,2.67-.16,4.02-.08,.81-.53,1.65-.39,2.4,.57,3.22-1.46,5.58-2.53,8.25-.15,.37-.43,.94-.69,.96-2.73,.18-3.38,2.71-4.87,4.25-.95,.98-1.89,1.18-2.89,.41-1.1-.85-.81-1.93-.08-2.89,1.78-2.36,2.15-5.1,2.31-8.05Z"/><path d="M201.45,314.49c2.26,.6,5.44,1.26,8.48,2.33,1.34,.47,2.53,1.63,3.54,2.71,1.32,1.42,1.14,3.17,.07,4.65-.33,.46-1.37,.7-1.99,.59-3.13-.58-6.2-1.67-9.34-1.89-2.67-.19-5.41,.53-8.11,.91-6.27,.89-12.54,1.83-18.81,2.69-.54,.07-1.15-.37-1.73-.57,.24-.64,.29-1.64,.74-1.87,4.71-2.47,8.42-6.81,13.94-7.74,4.04-.68,8.12-1.12,13.23-1.8Z"/><path d="M76.39,201.27c1.76,0,4.05-.29,6.23,.08,2.38,.4,4.61,1.61,6.98,2.12,4.89,1.04,8.79,3.71,12.65,6.7,1.91,1.48,4.36,2.24,6.55,3.37,2.44,1.27,3.03,3.81,3.69,6.09,.32,1.1-.9,1.7-2.11,.91-2.79-1.82-5.63-3.58-8.35-5.49-4.63-3.24-9-6.94-14.63-8.38-8.68-2.22-17.04-1.68-24.88,3.13-1.61,.99-3.41,1.72-5.21,2.29-1.62,.51-2.82-.89-2.08-2.38,.81-1.63,1.74-3.16,3.75-3.8,2.05-.66,3.98-1.73,5.96-2.61,.43-.19,.86-.43,1.32-.5,3.22-.51,6.44-.97,10.13-1.52Z"/><path d="M94.78,317.36c.51-1.6,.89-3.26,1.58-4.77,.3-.66,1.22-1.33,1.91-1.39,.44-.04,1.2,.97,1.43,1.64,1.12,3.31,2.69,6.34,4.8,9.14,2.39,3.17,5.57,5.21,9.17,6.59,2.01,.77,4.19,1.1,6.25,1.76,.56,.18,.98,.83,1.46,1.26-.47,.39-.9,1.08-1.4,1.13-1.45,.16-3.05,.44-4.37,0-4.94-1.64-10.1-3.01-14.57-5.55-3.3-1.88-6.11-5.15-6.27-9.81Z"/><path d="M229.05,208.58c1.68-2.83,4.37-2.91,6.72-3.5,4.86-1.21,10.01-.67,14.44,.72,7.3,2.3,14.88,4.52,21.05,9.5,1.9,1.54,3.61,3.36,5.18,5.24,.51,.61,.28,1.84,.39,2.79-.87-.18-1.94-.1-2.56-.58-2.32-1.82-4.46-3.87-6.72-5.77-4.38-3.71-8.86-7.35-14.7-8.4-6.36-1.14-12.75-1.8-19.17-.04-1.36,.37-2.91,.05-4.64,.05Z"/><path d="M243.62,259.97c-1.14-.08-2.28-.11-3.4-.25-4.89-.58-9.24-2.65-13.38-5.15-.66-.39-.96-1.37-1.43-2.08,.85-.15,1.71-.46,2.55-.42,5.24,.24,9.34,3.54,14.01,5.33,.74,.28,1.28,1.08,1.91,1.64l-.24,.93Z"/><path d="M120.36,284.4c-1.14,1.04-1.92,1.74-2.69,2.45-.42-.58-1.3-1.34-1.16-1.71,.3-.79,1.05-1.51,1.79-1.96,.25-.15,1.05,.6,2.06,1.23Z"/><path d="M109.85,292.23c-.17-2.31,.69-3.79,2.12-3.64,.4,.04,1.05,.78,1.03,1.17-.12,1.82-1.25,2.59-3.15,2.47Z"/><path d="M185.72,412.18c-.81,.53-1.51,1.22-1.74,1.09-.52-.3-1-.97-1.12-1.56-.07-.35,.59-.84,.92-1.26l1.94,1.73Z"/><path d="M164.19,66.24c-.74,.42-1.45,.92-2.24,1.21-.15,.06-.59-.69-.9-1.07l2.53-1.24,.61,1.09Z"/><g><path d="M162.4,484.67c-4.82,3.07-11.03,2.33-16.43,2.33-9.23-.31-18.43-1.37-27.46-3.41-53.18-11.3-87.69-56.1-101.95-106.39-.89-2.96-1.71-6.16-2.54-9.14-3.33-11.16-3.64-22.7-4.33-34.12-1.44-36.15-.02-72.3,1.88-108.4l2.97,.14c-1.18,28.79-1.85,57.66-1.42,86.47,.3,14.34,.69,28.8,2.55,43.01,7.99,41.54,28.48,83.53,64.65,107.27,23.99,15.83,53.46,21.31,81.88,19.27l.2,2.96h0Z"/><path d="M155.61,483.95c3.59-1.74,7.23-2.01,11.06-2.03,3.38-.03,7.7-.3,10.99-.49,63.15-3.93,110.83-36.83,134.21-96.01,2.56-6.77,5.58-13.56,7.13-20.64,2.91-14.34,3.79-29.32,4.7-43.98,1.13-22.2,2.26-44.59,1.76-66.82-.29-7.38-.82-14.82-1.82-22.09l2.93-.48c4.14,29.71,2.05,59.72,1.12,89.58-.83,14.96-1.6,29.89-4.49,44.67-14.43,52.89-47.54,95.57-101,112.48-21.47,6.89-44.2,9.28-66.65,8.79l.06-2.97h0Z"/></g></svg>