<?xml version="1.0" encoding="UTF-8"?><svg id="Layer_2" xmlns="http://www.w3.org/2000/svg" viewBox="0 0 941.74 482"><defs><style>.cls-1{fill:#fff;}</style></defs><g id="Layer_1-2"><g id="Logo"><rect class="cls-1" x="446.75" y="55.03" width="67.64" height="145.13"/><rect class="cls-1" x="446.75" y="279.61" width="67.64" height="119.41"/><path class="cls-1" d="M804.16,158.61c4.92,11.37,13.83,17.05,26.72,17.05h81.3c3.77,0,7.58-.76,11.37-2.27,12.13-4.93,18.19-13.83,18.19-26.72v-13.64c-.38-37.52-15.73-68.41-46.05-92.67C861.21,13.45,816.29,0,760.95,0c-42.45,0-79.79,9.29-112,27.86-6.91,4.09-13.11,8.56-18.9,13.24,.45,2.27,.7,4.49,.7,6.63V410.54c34.15,27.21,77.54,40.86,130.2,40.86,42.07,0,79.21-8.53,111.44-25.58,46.24-24.63,69.36-60.45,69.36-107.45v-13.64c0-3.79-.77-7.58-2.27-11.37-4.93-11.75-14.02-17.62-27.29-17.62h-81.3c-4.18,0-8.16,.76-11.94,2.27-11.37,4.93-17.05,13.83-17.05,26.72v25.01c0,6.06-1.33,11.94-3.98,17.62-6.82,13.64-19.14,20.47-36.95,20.47-5.31,0-10.61-.95-15.92-2.84-16.68-6.06-25.01-17.81-25.01-35.25V121.66c0-6.06,1.33-11.94,3.98-17.62,6.82-13.64,19.13-20.47,36.95-20.47,5.31,0,10.6,.95,15.92,2.84,16.68,6.06,25.01,17.81,25.01,35.25v25.01c0,3.79,.76,7.77,2.27,11.94Z"/><path class="cls-1" d="M330.39,410.96V47.73c0-5.04,.99-9.29,2.6-13.04h-81.95c-3.8,0-7.8,.76-11.98,2.28-11.41,4.95-17.12,13.88-17.12,26.82V359.9c0,6.09-1.14,11.79-3.42,17.12-6.85,14.07-19.21,21.11-37.09,21.11-5.33,0-10.65-.95-15.98-2.85-16.74-6.09-25.1-17.88-25.1-35.37v-21.68c0-3.8-.77-7.8-2.28-11.98-4.94-11.41-13.89-17.12-26.82-17.12H29.1c-4.19,0-8.19,.76-11.98,2.28-11.41,4.95-17.12,13.88-17.12,26.82v10.27c.37,37.66,15.59,68.46,45.64,92.43,34.61,27.39,79.88,41.08,135.79,41.08,42.59,0,80.07-9.32,112.4-27.96,15.49-9.16,28.28-19.76,38.45-31.76-1.26-3.95-1.88-7.73-1.88-11.33Z"/></g></g></svg>